# xmcd CD database file
#
# Track frame offsets:
#	182
#	38292
#	59540
#	87497
#	115957
#	148955
#
# Disc length: 2379 seconds
#
# Revision: 0
# Processed by: cddbd v1.4PL0 Copyright (c) Steve Scherf et al.
# Submitted via: CDex 1.50Beta7
#
DISCID=51094906
DTITLE=Monty Alexander - Threesome
DYEAR=1985
DGENRE=Jazz
TTITLE0=Renewal
TTITLE1=A Weaver Of Dreams
TTITLE2=Fried Pies
TTITLE3=All Blues
TTITLE4=Compassion
TTITLE5=I'll Remember April
EXTD=YEAR: 1985
EXTT0=
EXTT1=
EXTT2=
EXTT3=
EXTT4=
EXTT5=
PLAYORDER=
